<?xml version="1.0" encoding="UTF-8" standalone="no"?>
<!-- Created with Inkscape (http://www.inkscape.org/) -->

<svg
   width="512"
   height="512"
   viewBox="0 0 512 512"
   version="1.1"
   id="svg1"
   inkscape:version="1.4 (e7c3feb1, 2024-10-09)"
   sodipodi:docname="snz2.svg"
   xmlns:inkscape="http://www.inkscape.org/namespaces/inkscape"
   xmlns:sodipodi="http://sodipodi.sourceforge.net/DTD/sodipodi-0.dtd"
   xmlns="http://www.w3.org/2000/svg"
   xmlns:svg="http://www.w3.org/2000/svg">
  <sodipodi:namedview
     id="namedview1"
     pagecolor="#ffffff"
     bordercolor="#000000"
     borderopacity="0.25"
     inkscape:showpageshadow="2"
     inkscape:pageopacity="0.0"
     inkscape:pagecheckerboard="0"
     inkscape:deskcolor="#d1d1d1"
     inkscape:document-units="px"
     inkscape:zoom="0.40625"
     inkscape:cx="176"
     inkscape:cy="-20.923077"
     inkscape:window-width="1440"
     inkscape:window-height="792"
     inkscape:window-x="0"
     inkscape:window-y="1465"
     inkscape:window-maximized="1"
     inkscape:current-layer="layer1" />
  <defs
     id="defs1" />
  <g
     inkscape:label="Layer 1"
     inkscape:groupmode="layer"
     id="layer1">
    <rect
       style="fill:#ffffff;stroke-width:1.7915"
       id="rect1"
       width="512"
       height="512"
       x="0"
       y="0" />
    <path
       style="fill:#000000"
       d="M -64.40109,256 V -64.40109 H 256 576.40109 V 256 576.40109 H 256 -64.40109 Z m 175.54611,144.78089 c 5.79675,-11.78456 15.56554,-28.30618 21.70842,-36.71472 8.94274,-12.24106 12.27022,-14.71339 16.69454,-12.40411 5.19416,2.71109 54.47593,19.68233 57.15437,19.68233 0.68062,0 1.23749,-3.58375 1.23749,-7.9639 0,-6.51329 -3.47762,-9.7194 -19.09208,-17.60156 -19.54895,-9.86827 -28.09932,-11.08296 -71.42123,-10.14627 l -21.62708,0.46761 v 43.25415 c 0,23.78978 1.08135,43.16387 2.40301,43.05354 1.32165,-0.11033 7.14581,-9.84252 12.94256,-21.62707 z M 235.0896,371.48085 c 1.60273,-2.59328 -13.57771,-12.9525 -18.98063,-12.9525 -3.60326,0 -1.61047,12.34283 2.2439,13.8981 6.76622,2.73023 14.74349,2.27952 16.73673,-0.9456 z M 256,352.75878 c 0,-3.6038 -27.6868,-16.65851 -35.32983,-16.65851 -3.48383,0 -6.32231,2.15773 -6.32231,4.80602 0,2.64331 0.36045,4.82772 0.801,4.85426 0.44055,0.0265 6.56822,2.12595 13.61705,4.66538 C 243.039,355.56799 256,356.67822 256,352.75878 Z m -51.20399,-16.62131 c -2.50813,-1.55011 -5.97519,-1.9439 -7.70456,-0.87509 -1.72938,1.06881 -0.35641,2.9554 3.05103,4.19242 7.66079,2.78112 10.84652,0.51015 4.65353,-3.31733 z m 70.16105,2.01554 C 271.13011,334.85273 256,333.16567 256,336.03923 c 0,1.79578 4.56572,3.26505 10.14603,3.26505 5.58032,0 9.54529,-0.51807 8.81103,-1.15127 z M 135.32818,327.28924 c 0.80232,-1.32165 0.21759,-10.199 -1.29941,-19.72744 -3.41965,-21.47917 0.39003,-51.26196 8.05322,-62.95747 8.2744,-12.62832 10.41505,-6.52564 13.12026,37.40389 1.62429,26.37669 1.23986,37.83816 -1.32225,39.42163 -8.37792,5.17784 -1.96818,7.086 25.22374,7.50904 15.85985,0.24673 28.8361,-0.68099 28.8361,-2.06161 0,-1.38063 -3.60452,-4.4393 -8.01003,-6.79706 -4.40552,-2.35776 -8.01003,-5.25358 -8.01003,-6.43514 0,-1.18157 3.60451,-3.79064 8.01003,-5.79792 8.84336,-4.02931 10.79507,-14.84873 3.20401,-17.76169 -6.30339,-2.41884 -6.24914,-30.90101 0.0924,-48.50352 7.86091,-21.81993 10.31173,-20.82607 -51.35657,-20.82607 h -56.0702 v 52.33218 c 0,28.7827 0.9612,53.29338 2.13601,54.46818 2.93928,2.93928 35.58783,2.70616 37.39272,-0.267 z m 35.31314,-21.65064 c -1.06645,-2.77911 -1.29552,-17.31278 -0.50904,-32.29704 1.18352,-22.54901 2.63194,-28.4461 8.40471,-34.21887 l 6.97477,-6.97477 v 19.48888 c 0,10.71888 0.87987,25.90825 1.95527,33.75415 1.76965,12.91101 1.15583,14.78909 -6.46572,19.78293 -7.57148,4.96102 -8.61661,5.0079 -10.35999,0.46472 z m 91.70312,21.65064 c -0.035,-1.32165 -7.36071,-6.72842 -16.27943,-12.01504 -20.09346,-11.9105 -24.89092,-17.12416 -19.06843,-20.72266 2.73573,-1.69077 9.31218,1.26966 18.64373,8.39259 15.3411,11.71012 26.69677,18.14355 38.39479,21.75211 13.74755,4.24081 7.27075,-4.49975 -15.73188,-21.23045 -27.91812,-20.30593 -23.62003,-24.17971 6.78583,-6.11592 12.14477,7.21507 25.87938,13.11832 30.52137,13.11832 11.57158,0 8.41732,-3.58713 -15.86846,-18.04612 -19.13273,-11.39104 -25.24767,-17.198 -18.11008,-17.198 1.5487,0 11.19607,5.04631 21.43858,11.21403 10.24252,6.16772 20.50983,11.21404 22.81626,11.21404 9.27659,0 3.26691,-9.53861 -12.30551,-19.53141 -18.3746,-11.79094 -15.31014,-17.16038 3.69701,-6.47776 10.10305,5.67823 12.40509,6.03282 13.89858,2.14085 1.0608,-2.76441 -1.73463,-7.31538 -6.86233,-11.17189 -8.47561,-6.37444 -8.51158,-6.54705 -1.76125,-8.45217 3.94071,-1.11218 7.52937,-5.28401 8.38196,-9.74407 1.23252,-6.44748 0.45466,-7.47032 -4.48804,-5.90157 -4.9489,1.57072 -5.97895,0.20449 -5.97895,-7.9303 0,-6.59994 -1.57855,-9.82794 -4.80602,-9.82794 -3.54267,0 -4.80602,3.69992 -4.80602,14.07526 0,9.55566 -1.54322,14.66744 -4.80601,15.91949 -3.87462,1.48683 -4.80602,-1.24093 -4.80602,-14.07525 0,-12.01466 -1.17885,-15.9195 -4.80602,-15.9195 -3.73801,0 -4.80601,4.27201 -4.80601,19.22407 0,10.57323 -0.60298,19.22406 -1.33996,19.22406 -0.73698,0 -3.75268,0.92585 -6.70157,2.05745 -4.74365,1.82031 -5.23546,-0.39618 -4.26706,-19.23079 0.79596,-15.48081 0.002,-21.2864 -2.91046,-21.28151 -2.84742,0.005 -4.00502,6.95233 -4.00502,24.0368 0,13.21655 -0.60298,24.03008 -1.33996,24.03008 -0.73697,0 -3.80282,0.94509 -6.81299,2.10021 -4.91082,1.88445 -5.29945,-0.008 -3.78317,-18.42307 0.92943,-11.28779 2.63046,-23.40687 3.78005,-26.93128 1.9681,-6.03379 0.87068,-6.34558 -18.79103,-5.33877 l -20.8812,1.06926 0.46633,46.35552 0.46632,46.35552 13.03479,7.8141 c 12.19702,7.31187 33.9391,10.83187 33.79728,5.47171 z m -37.04853,-60.73213 c -2.18561,-14.57465 2.46623,-37.40457 8.36433,-41.04979 1.81583,-1.12225 3.11569,3.31355 3.11569,10.63234 0,6.90687 0.88785,19.03548 1.97299,26.95248 1.74484,12.72992 1.2059,14.59513 -4.66038,16.1292 -5.7816,1.51192 -6.91065,-0.11427 -8.79263,-12.66423 z m 120.4164,12.38526 c 0,-2.32907 -13.68504,-10.12633 -17.77282,-10.12633 -0.79819,0 -1.45125,2.88361 -1.45125,6.40803 0,4.98401 2.13601,6.40802 9.61203,6.40802 5.28662,0 9.61204,-1.21038 9.61204,-2.68972 z m 11.86142,-15.27249 c 0.85739,-2.57217 -24.31085,-17.28191 -29.5692,-17.28191 -0.83396,0 -1.51629,2.7294 -1.51629,6.06534 0,3.98852 4.11404,7.76855 12.01504,11.03957 12.71208,5.26281 17.3608,5.30596 19.07045,0.177 z m 13.77066,-13.81658 c 0,-1.61849 -5.40677,-6.19428 -12.01504,-10.16843 -6.60827,-3.97416 -12.51987,-7.60034 -13.13688,-8.05818 -0.61701,-0.45785 -0.20302,-2.31913 0.91999,-4.13618 1.30258,-2.10762 6.64649,-0.90365 14.7602,3.32546 12.45548,6.49215 22.28778,6.30387 22.28778,-0.4268 0,-5.95509 -16.77111,-10.01503 -37.52134,-9.08315 -19.85763,0.89179 -20.15086,1.03923 -20.15086,10.13223 0,6.27008 1.33922,8.71337 4.17874,7.62375 2.29831,-0.88195 9.86779,1.84002 16.82106,6.04881 12.93233,7.82789 23.85635,9.99952 23.85635,4.74249 z M 207.93984,158.27767 v -56.07019 h -56.0702 -56.07019 v 53.93418 c 0,29.6638 0.9612,54.89539 2.13601,56.07019 1.1748,1.1748 26.40639,2.13601 56.07019,2.13601 h 53.93419 z m 87.23805,48.59576 5.53578,-6.94362 0.0712,7.20902 c 0.10163,10.28426 9.11371,9.05054 11.70226,-1.602 1.17759,-4.84607 3.72822,-11.13283 5.66806,-13.97057 2.25875,-3.30426 3.17492,-20.29786 2.54787,-47.25917 l -0.97913,-42.09961 h -52.68806 -52.68805 v 56.1969 56.19691 l 37.64713,-0.39212 c 34.52541,-0.35961 38.10615,-0.9679 43.1829,-7.33574 z m 101.79859,5.47689 c 0,-0.8469 -4.32541,-3.04766 -9.61203,-4.89059 -12.773,-4.45269 -12.57286,-10.52509 0.26229,-7.95807 10.10927,2.02186 22.16578,-2.16343 22.16578,-7.69461 0,-1.7002 -4.32541,-3.09128 -9.61203,-3.09128 -5.28662,0 -9.61203,-1.4418 -9.61203,-3.20401 0,-1.76221 3.48659,-3.20401 7.74798,-3.20401 9.80956,0 17.88411,-3.04795 17.88411,-6.75082 0,-1.57367 -3.17197,-2.86121 -7.04883,-2.86121 -9.09517,0 -3.72183,-5.4839 6.79786,-6.93773 4.26749,-0.58976 8.42919,-3.10431 9.24822,-5.58787 1.02303,-3.10215 -0.15203,-3.88579 -3.75405,-2.50357 -8.02573,3.07976 -6.23427,-2.24057 1.96582,-5.83815 3.96496,-1.73952 7.22741,-5.58416 7.24989,-8.54365 0.0225,-2.95948 1.10383,-6.44385 2.40301,-7.74302 1.29918,-1.29918 2.36214,-9.36573 2.36214,-17.92567 v -15.56352 l -53.66718,0.87847 -53.66718,0.87847 -0.40557,54.46819 c -0.22306,29.9575 0.18058,50.86367 0.89698,46.45816 2.80889,-17.27339 4.719,-23.09168 6.87354,-20.93714 2.60517,2.60516 2.90819,4.28399 3.44858,19.10627 l 0.4005,10.98518 h 28.8361 c 15.85986,0 28.8361,-0.69292 28.8361,-1.53982 z m -51.26417,-16.4419 c 0,-10.33131 1.70662,-17.43642 4.80601,-20.00869 4.16303,-3.45501 4.80602,-1.84536 4.80602,12.03141 0,10.33131 -1.70662,17.43643 -4.80602,20.0087 -4.16303,3.455 -4.80601,1.84535 -4.80601,-12.03142 z m 16.02005,-13.14458 c 0,-14.83336 5.27047,-20.52209 8.19983,-8.85058 2.57449,10.25759 0.83175,18.73738 -4.19482,20.41103 -2.76145,0.91945 -4.00501,-2.67009 -4.00501,-11.56045 z m 14.22085,-4.62064 c -1.1051,-2.87985 -0.6478,-9.24862 1.01622,-14.15282 l 3.0255,-8.91672 2.40688,10.7297 c 2.62649,11.70868 -2.74586,21.98902 -6.4486,12.33984 z m 12.91749,-12.55169 c -1.12337,-2.92744 -0.69117,-7.73728 0.96043,-10.68853 2.70337,-4.83066 3.17035,-4.72565 4.68142,1.05272 2.25804,8.63475 -2.74624,17.18165 -5.64185,9.63581 z m 11.30979,-13.53277 c 0,-4.50952 1.44181,-8.19912 3.20401,-8.19912 1.76221,0 3.20401,2.79852 3.20401,6.21893 0,3.42041 -1.4418,7.11001 -3.20401,8.19912 -1.81718,1.12308 -3.20401,-1.56874 -3.20401,-6.21893 z m 13.32194,-11.40313 c 0,-4.40552 0.72723,-6.20777 1.61606,-4.00502 0.88883,2.20276 0.88883,5.80727 0,8.01003 -0.88883,2.20276 -1.61606,0.4005 -1.61606,-4.00501 z"
       id="path1"
       inkscape:label="path1" />
  </g>
</svg>
